<mxfile host="app.diagrams.net" modified="2023-09-12T08:49:38.043Z" agent="Mozilla/5.0 (Windows NT 10.0; Win64; x64) AppleWebKit/537.36 (KHTML, like Gecko) Chrome/116.0.0.0 Safari/537.36 Edg/116.0.1938.76" etag="m2O6QCBZtylthXJ9OH45" version="21.7.4" type="onedrive">
  <diagram name="Seite-1" id="YaRFBHeieYwtwoqcj2o3">
    <mxGraphModel grid="1" page="1" gridSize="10" guides="1" tooltips="1" connect="1" arrows="1" fold="1" pageScale="1" pageWidth="2339" pageHeight="3300" math="0" shadow="0">
      <root>
        <mxCell id="0" />
        <mxCell id="1" parent="0" />
        <mxCell id="TjytSRkxPF6Oe4-oskK--2" value="" style="whiteSpace=wrap;html=1;aspect=fixed;editable=1;movable=1;resizable=1;rotatable=1;deletable=1;locked=0;connectable=1;" vertex="1" parent="1">
          <mxGeometry x="-25" y="620" width="1380" height="1380" as="geometry" />
        </mxCell>
        <object placeholders="1" c4Type="Order Entry System" c4Container="Container" c4Technology="e.g. Vue.js" c4Description="web browser container which Offers a &quot;single-page application&quot; where customers can place their order." label="&lt;font style=&quot;font-size: 16px&quot;&gt;&lt;b&gt;%c4Type%&lt;/b&gt;&lt;/font&gt;&lt;div&gt;[%c4Container%:&amp;nbsp;%c4Technology%]&lt;/div&gt;&lt;br&gt;&lt;div&gt;&lt;font style=&quot;font-size: 11px&quot;&gt;&lt;font color=&quot;#E6E6E6&quot;&gt;%c4Description%&lt;/font&gt;&lt;/div&gt;" id="TjytSRkxPF6Oe4-oskK--3">
          <mxCell style="shape=mxgraph.c4.webBrowserContainer2;whiteSpace=wrap;html=1;boundedLbl=1;rounded=0;labelBackgroundColor=none;strokeColor=#118ACD;fillColor=#23A2D9;strokeColor=#118ACD;strokeColor2=#0E7DAD;fontSize=12;fontColor=#ffffff;align=center;metaEdit=1;points=[[0.5,0,0],[1,0.25,0],[1,0.5,0],[1,0.75,0],[0.5,1,0],[0,0.75,0],[0,0.5,0],[0,0.25,0]];resizable=1;editable=1;movable=1;rotatable=1;deletable=1;locked=0;connectable=1;" vertex="1" parent="1">
            <mxGeometry x="637.37" y="380" width="183" height="135" as="geometry" />
          </mxCell>
        </object>
        <mxCell id="TjytSRkxPF6Oe4-oskK--4" style="edgeStyle=orthogonalEdgeStyle;rounded=0;orthogonalLoop=1;jettySize=auto;html=1;" edge="1" parent="1" target="TjytSRkxPF6Oe4-oskK--3">
          <mxGeometry relative="1" as="geometry">
            <mxPoint x="527" y="447.5" as="sourcePoint" />
          </mxGeometry>
        </mxCell>
        <mxCell id="TjytSRkxPF6Oe4-oskK--5" value="&lt;div style=&quot;box-sizing: content-box; -webkit-font-smoothing: antialiased; font-family: Helvetica, &amp;quot;VP Default&amp;quot;; font-size: 12px;&quot;&gt;&lt;font style=&quot;font-size: 12px;&quot;&gt;visits bicycle.de&lt;/font&gt;&lt;/div&gt;&lt;div style=&quot;box-sizing: content-box; -webkit-font-smoothing: antialiased; font-family: Helvetica, &amp;quot;VP Default&amp;quot;; font-size: 12px;&quot;&gt;&lt;font style=&quot;font-size: 12px;&quot;&gt;and place an&lt;/font&gt;&lt;/div&gt;&lt;div style=&quot;box-sizing: content-box; -webkit-font-smoothing: antialiased; font-family: Helvetica, &amp;quot;VP Default&amp;quot;; font-size: 12px;&quot;&gt;&lt;font style=&quot;font-size: 12px;&quot;&gt;order&lt;/font&gt;&lt;/div&gt;" style="edgeLabel;html=1;align=center;verticalAlign=middle;resizable=0;points=[];" connectable="0" vertex="1" parent="TjytSRkxPF6Oe4-oskK--4">
          <mxGeometry x="0.1367" y="-1" relative="1" as="geometry">
            <mxPoint x="-15" y="-1" as="offset" />
          </mxGeometry>
        </mxCell>
        <object placeholders="1" c4Name="Customer" c4Type="Person" c4Description="A customer of the bicycle manufacturer who wants to place an order." label="&lt;font style=&quot;font-size: 16px&quot;&gt;&lt;b&gt;%c4Name%&lt;/b&gt;&lt;/font&gt;&lt;div&gt;[%c4Type%]&lt;/div&gt;&lt;br&gt;&lt;div&gt;&lt;font style=&quot;font-size: 11px&quot;&gt;&lt;font color=&quot;#cccccc&quot;&gt;%c4Description%&lt;/font&gt;&lt;/div&gt;" id="TjytSRkxPF6Oe4-oskK--6">
          <mxCell style="html=1;fontSize=11;dashed=0;whiteSpace=wrap;fillColor=#6C6477;strokeColor=#4D4D4D;fontColor=#ffffff;shape=mxgraph.c4.person2;align=center;metaEdit=1;points=[[0.5,0,0],[1,0.5,0],[1,0.75,0],[0.75,1,0],[0.5,1,0],[0.25,1,0],[0,0.75,0],[0,0.5,0]];resizable=1;editable=1;movable=1;rotatable=1;deletable=1;locked=0;connectable=1;" vertex="1" parent="1">
            <mxGeometry x="380" y="360" width="143" height="130" as="geometry" />
          </mxCell>
        </object>
        <object placeholders="1" c4Name="BPMS" c4Type="ContainerScopeBoundary" c4Application="Container" label="&lt;font style=&quot;font-size: 16px&quot;&gt;&lt;b&gt;&lt;div style=&quot;text-align: left&quot;&gt;%c4Name%&lt;/div&gt;&lt;/b&gt;&lt;/font&gt;&lt;div style=&quot;text-align: left&quot;&gt;[%c4Application%]&lt;/div&gt;" id="TjytSRkxPF6Oe4-oskK--13">
          <mxCell style="rounded=1;fontSize=11;whiteSpace=wrap;html=1;dashed=1;arcSize=20;fillColor=none;strokeColor=#666666;fontColor=#333333;labelBackgroundColor=none;align=left;verticalAlign=bottom;labelBorderColor=none;spacingTop=0;spacing=10;dashPattern=8 4;metaEdit=1;rotatable=0;perimeter=rectanglePerimeter;noLabel=0;labelPadding=0;allowArrows=0;connectable=0;expand=0;recursiveResize=0;editable=1;pointerEvents=0;absoluteArcSize=1;points=[[0.25,0,0],[0.5,0,0],[0.75,0,0],[1,0.25,0],[1,0.5,0],[1,0.75,0],[0.75,1,0],[0.5,1,0],[0.25,1,0],[0,0.75,0],[0,0.5,0],[0,0.25,0]];" vertex="1" parent="1">
            <mxGeometry x="450" y="670" width="590" height="430" as="geometry" />
          </mxCell>
        </object>
        <object placeholders="1" c4Name="Production execution" c4Type="ContainerScopeBoundary" c4Application="Container" label="&lt;font style=&quot;font-size: 16px&quot;&gt;&lt;b&gt;&lt;div style=&quot;text-align: left&quot;&gt;%c4Name%&lt;/div&gt;&lt;/b&gt;&lt;/font&gt;&lt;div style=&quot;text-align: left&quot;&gt;[%c4Application%]&lt;/div&gt;" id="TjytSRkxPF6Oe4-oskK--14">
          <mxCell style="rounded=1;fontSize=11;whiteSpace=wrap;html=1;dashed=1;arcSize=20;fillColor=none;strokeColor=#666666;fontColor=#333333;labelBackgroundColor=none;align=left;verticalAlign=bottom;labelBorderColor=none;spacingTop=0;spacing=10;dashPattern=8 4;metaEdit=1;rotatable=0;perimeter=rectanglePerimeter;noLabel=0;labelPadding=0;allowArrows=0;connectable=0;expand=0;recursiveResize=0;editable=1;pointerEvents=0;absoluteArcSize=1;points=[[0.25,0,0],[0.5,0,0],[0.75,0,0],[1,0.25,0],[1,0.5,0],[1,0.75,0],[0.75,1,0],[0.5,1,0],[0.25,1,0],[0,0.75,0],[0,0.5,0],[0,0.25,0]];" vertex="1" parent="1">
            <mxGeometry x="420" y="1180" width="570" height="230" as="geometry" />
          </mxCell>
        </object>
        <mxCell id="TjytSRkxPF6Oe4-oskK--26" style="edgeStyle=orthogonalEdgeStyle;rounded=0;orthogonalLoop=1;jettySize=auto;html=1;" edge="1" parent="1" source="TjytSRkxPF6Oe4-oskK--15" target="TjytSRkxPF6Oe4-oskK--17">
          <mxGeometry relative="1" as="geometry" />
        </mxCell>
        <object placeholders="1" c4Name="Zeebe " c4Type="Component" c4Technology="" c4Description="Workflow engine for microservice orchestration." label="&lt;font style=&quot;font-size: 16px&quot;&gt;&lt;b&gt;%c4Name%&lt;/b&gt;&lt;/font&gt;&lt;div&gt;[%c4Type%: %c4Technology%]&lt;/div&gt;&lt;br&gt;&lt;div&gt;&lt;font style=&quot;font-size: 11px&quot;&gt;%c4Description%&lt;/font&gt;&lt;/div&gt;" id="TjytSRkxPF6Oe4-oskK--15">
          <mxCell style="rounded=1;whiteSpace=wrap;html=1;labelBackgroundColor=none;fillColor=#63BEF2;fontColor=#ffffff;align=center;arcSize=6;strokeColor=#2086C9;metaEdit=1;resizable=1;points=[[0.25,0,0],[0.5,0,0],[0.75,0,0],[1,0.25,0],[1,0.5,0],[1,0.75,0],[0.75,1,0],[0.5,1,0],[0.25,1,0],[0,0.75,0],[0,0.5,0],[0,0.25,0]];editable=1;movable=1;rotatable=1;deletable=1;locked=0;connectable=1;" vertex="1" parent="1">
            <mxGeometry x="652.25" y="680" width="148.5" height="85" as="geometry" />
          </mxCell>
        </object>
        <object placeholders="1" c4Name="Elastic search" c4Type="Component" c4Technology="" c4Description="used for log analytics, full-text search, security intelligence" label="&lt;font style=&quot;font-size: 16px&quot;&gt;&lt;b&gt;%c4Name%&lt;/b&gt;&lt;/font&gt;&lt;div&gt;[%c4Type%: %c4Technology%]&lt;/div&gt;&lt;br&gt;&lt;div&gt;&lt;font style=&quot;font-size: 11px&quot;&gt;%c4Description%&lt;/font&gt;&lt;/div&gt;" id="TjytSRkxPF6Oe4-oskK--17">
          <mxCell style="rounded=1;whiteSpace=wrap;html=1;labelBackgroundColor=none;fillColor=#63BEF2;fontColor=#ffffff;align=center;arcSize=6;strokeColor=#2086C9;metaEdit=1;resizable=1;points=[[0.25,0,0],[0.5,0,0],[0.75,0,0],[1,0.25,0],[1,0.5,0],[1,0.75,0],[0.75,1,0],[0.5,1,0],[0.25,1,0],[0,0.75,0],[0,0.5,0],[0,0.25,0]];editable=1;movable=1;rotatable=1;deletable=1;locked=0;connectable=1;" vertex="1" parent="1">
            <mxGeometry x="652.25" y="800" width="148.5" height="85" as="geometry" />
          </mxCell>
        </object>
        <mxCell id="TjytSRkxPF6Oe4-oskK--43" style="edgeStyle=orthogonalEdgeStyle;rounded=0;orthogonalLoop=1;jettySize=auto;html=1;entryX=0.5;entryY=1;entryDx=0;entryDy=0;entryPerimeter=0;" edge="1" parent="1" source="TjytSRkxPF6Oe4-oskK--18" target="TjytSRkxPF6Oe4-oskK--17">
          <mxGeometry relative="1" as="geometry">
            <Array as="points">
              <mxPoint x="935" y="920" />
              <mxPoint x="726" y="920" />
            </Array>
          </mxGeometry>
        </mxCell>
        <object placeholders="1" c4Name="Optimize" c4Type="Component" c4Technology="" c4Description="Geared toward business stakeholders, Optimize offers business intelligence tooling for Camunda enterprise customers." label="&lt;font style=&quot;font-size: 16px&quot;&gt;&lt;b&gt;%c4Name%&lt;/b&gt;&lt;/font&gt;&lt;div&gt;[%c4Type%: %c4Technology%]&lt;/div&gt;&lt;br&gt;&lt;div&gt;&lt;font style=&quot;font-size: 11px&quot;&gt;%c4Description%&lt;/font&gt;&lt;/div&gt;" id="TjytSRkxPF6Oe4-oskK--18">
          <mxCell style="rounded=1;whiteSpace=wrap;html=1;labelBackgroundColor=none;fillColor=#63BEF2;fontColor=#ffffff;align=center;arcSize=6;strokeColor=#2086C9;metaEdit=1;resizable=1;points=[[0.25,0,0],[0.5,0,0],[0.75,0,0],[1,0.25,0],[1,0.5,0],[1,0.75,0],[0.75,1,0],[0.5,1,0],[0.25,1,0],[0,0.75,0],[0,0.5,0],[0,0.25,0]];editable=1;movable=1;rotatable=1;deletable=1;locked=0;connectable=1;" vertex="1" parent="1">
            <mxGeometry x="840" y="950" width="190" height="100" as="geometry" />
          </mxCell>
        </object>
        <mxCell id="TjytSRkxPF6Oe4-oskK--24" style="edgeStyle=orthogonalEdgeStyle;rounded=0;orthogonalLoop=1;jettySize=auto;html=1;entryX=0.5;entryY=1;entryDx=0;entryDy=0;entryPerimeter=0;" edge="1" parent="1" source="TjytSRkxPF6Oe4-oskK--19" target="TjytSRkxPF6Oe4-oskK--17">
          <mxGeometry relative="1" as="geometry" />
        </mxCell>
        <object placeholders="1" c4Name="Operate" c4Type="Component" c4Technology="" c4Description="Monitor and troubleshoot process instances running in Zeebe" label="&lt;font style=&quot;font-size: 16px&quot;&gt;&lt;b&gt;%c4Name%&lt;/b&gt;&lt;/font&gt;&lt;div&gt;[%c4Type%: %c4Technology%]&lt;/div&gt;&lt;br&gt;&lt;div&gt;&lt;font style=&quot;font-size: 11px&quot;&gt;%c4Description%&lt;/font&gt;&lt;/div&gt;" id="TjytSRkxPF6Oe4-oskK--19">
          <mxCell style="rounded=1;whiteSpace=wrap;html=1;labelBackgroundColor=none;fillColor=#63BEF2;fontColor=#ffffff;align=center;arcSize=6;strokeColor=#2086C9;metaEdit=1;resizable=1;points=[[0.25,0,0],[0.5,0,0],[0.75,0,0],[1,0.25,0],[1,0.5,0],[1,0.75,0],[0.75,1,0],[0.5,1,0],[0.25,1,0],[0,0.75,0],[0,0.5,0],[0,0.25,0]];editable=1;movable=1;rotatable=1;deletable=1;locked=0;connectable=1;" vertex="1" parent="1">
            <mxGeometry x="642.62" y="950" width="167.75" height="100" as="geometry" />
          </mxCell>
        </object>
        <mxCell id="TjytSRkxPF6Oe4-oskK--22" style="edgeStyle=orthogonalEdgeStyle;rounded=0;orthogonalLoop=1;jettySize=auto;html=1;entryX=0.5;entryY=1;entryDx=0;entryDy=0;entryPerimeter=0;" edge="1" parent="1" source="TjytSRkxPF6Oe4-oskK--20" target="TjytSRkxPF6Oe4-oskK--17">
          <mxGeometry relative="1" as="geometry">
            <Array as="points">
              <mxPoint x="544" y="920" />
              <mxPoint x="727" y="920" />
            </Array>
          </mxGeometry>
        </mxCell>
        <object placeholders="1" c4Name="Tasklist" c4Type="Component" c4Technology="" c4Description=" Implement business processes alongside user tasks in Zeebe, and orchestrate human workflows" label="&lt;font style=&quot;font-size: 16px&quot;&gt;&lt;b&gt;%c4Name%&lt;/b&gt;&lt;/font&gt;&lt;div&gt;[%c4Type%: %c4Technology%]&lt;/div&gt;&lt;br&gt;&lt;div&gt;&lt;font style=&quot;font-size: 11px&quot;&gt;%c4Description%&lt;/font&gt;&lt;/div&gt;" id="TjytSRkxPF6Oe4-oskK--20">
          <mxCell style="rounded=1;whiteSpace=wrap;html=1;labelBackgroundColor=none;fillColor=#63BEF2;fontColor=#ffffff;align=center;arcSize=6;strokeColor=#2086C9;metaEdit=1;resizable=1;points=[[0.25,0,0],[0.5,0,0],[0.75,0,0],[1,0.25,0],[1,0.5,0],[1,0.75,0],[0.75,1,0],[0.5,1,0],[0.25,1,0],[0,0.75,0],[0,0.5,0],[0,0.25,0]];editable=1;movable=1;rotatable=1;deletable=1;locked=0;connectable=1;" vertex="1" parent="1">
            <mxGeometry x="460" y="950" width="170" height="100" as="geometry" />
          </mxCell>
        </object>
        <mxCell id="TjytSRkxPF6Oe4-oskK--45" style="edgeStyle=orthogonalEdgeStyle;rounded=0;orthogonalLoop=1;jettySize=auto;html=1;exitX=1;exitY=0.5;exitDx=0;exitDy=0;exitPerimeter=0;" edge="1" parent="1" source="TjytSRkxPF6Oe4-oskK--28" target="TjytSRkxPF6Oe4-oskK--44">
          <mxGeometry relative="1" as="geometry" />
        </mxCell>
        <mxCell id="TjytSRkxPF6Oe4-oskK--46" value="reads from &lt;br&gt;and writes to" style="edgeLabel;html=1;align=center;verticalAlign=middle;resizable=0;points=[];" connectable="0" vertex="1" parent="TjytSRkxPF6Oe4-oskK--45">
          <mxGeometry x="-0.078" relative="1" as="geometry">
            <mxPoint y="15" as="offset" />
          </mxGeometry>
        </mxCell>
        <object placeholders="1" c4Name="Zeebe Client" c4Type="Component" c4Technology="E.g java, Go, Node.js " c4Description="Send commands to zeebe." label="&lt;font style=&quot;font-size: 16px&quot;&gt;&lt;b&gt;%c4Name%&lt;/b&gt;&lt;/font&gt;&lt;div&gt;[%c4Type%: %c4Technology%]&lt;/div&gt;&lt;br&gt;&lt;div&gt;&lt;font style=&quot;font-size: 11px&quot;&gt;%c4Description%&lt;/font&gt;&lt;/div&gt;" id="TjytSRkxPF6Oe4-oskK--28">
          <mxCell style="rounded=1;whiteSpace=wrap;html=1;labelBackgroundColor=none;fillColor=#63BEF2;fontColor=#ffffff;align=center;arcSize=6;strokeColor=#2086C9;metaEdit=1;resizable=1;points=[[0.25,0,0],[0.5,0,0],[0.75,0,0],[1,0.25,0],[1,0.5,0],[1,0.75,0],[0.75,1,0],[0.5,1,0],[0.25,1,0],[0,0.75,0],[0,0.5,0],[0,0.25,0]];editable=1;movable=1;rotatable=1;deletable=1;locked=0;connectable=1;" vertex="1" parent="1">
            <mxGeometry x="780" y="1220" width="157.75" height="90" as="geometry" />
          </mxCell>
        </object>
        <mxCell id="TjytSRkxPF6Oe4-oskK--37" style="edgeStyle=orthogonalEdgeStyle;rounded=0;orthogonalLoop=1;jettySize=auto;html=1;" edge="1" parent="1" source="TjytSRkxPF6Oe4-oskK--29">
          <mxGeometry relative="1" as="geometry">
            <mxPoint x="450" y="723" as="targetPoint" />
            <Array as="points">
              <mxPoint x="280" y="723" />
            </Array>
          </mxGeometry>
        </mxCell>
        <mxCell id="TjytSRkxPF6Oe4-oskK--42" value="&lt;font style=&quot;font-size: 12px;&quot;&gt;using SaaS version&lt;/font&gt;" style="edgeLabel;html=1;align=center;verticalAlign=middle;resizable=0;points=[];" connectable="0" vertex="1" parent="TjytSRkxPF6Oe4-oskK--37">
          <mxGeometry x="-0.566" relative="1" as="geometry">
            <mxPoint y="1" as="offset" />
          </mxGeometry>
        </mxCell>
        <mxCell id="TjytSRkxPF6Oe4-oskK--53" style="edgeStyle=orthogonalEdgeStyle;rounded=0;orthogonalLoop=1;jettySize=auto;html=1;entryX=0;entryY=0.667;entryDx=0;entryDy=0;entryPerimeter=0;" edge="1" parent="1" source="TjytSRkxPF6Oe4-oskK--29" target="TjytSRkxPF6Oe4-oskK--30">
          <mxGeometry relative="1" as="geometry">
            <Array as="points">
              <mxPoint x="270" y="1260" />
            </Array>
          </mxGeometry>
        </mxCell>
        <mxCell id="TjytSRkxPF6Oe4-oskK--54" value="using desktop version" style="edgeLabel;html=1;align=center;verticalAlign=middle;resizable=0;points=[];" connectable="0" vertex="1" parent="TjytSRkxPF6Oe4-oskK--53">
          <mxGeometry x="-0.5714" y="-3" relative="1" as="geometry">
            <mxPoint as="offset" />
          </mxGeometry>
        </mxCell>
        <object placeholders="1" c4Name="Camunda modeler" c4Type="Component" c4Technology="" c4Description="Design and implement diagrams using Camunda&#39;s modeling tools, including Web Modeler and Desktop Modeler." label="&lt;font style=&quot;font-size: 16px&quot;&gt;&lt;b&gt;%c4Name%&lt;/b&gt;&lt;/font&gt;&lt;div&gt;[%c4Type%: %c4Technology%]&lt;/div&gt;&lt;br&gt;&lt;div&gt;&lt;font style=&quot;font-size: 11px&quot;&gt;%c4Description%&lt;/font&gt;&lt;/div&gt;" id="TjytSRkxPF6Oe4-oskK--29">
          <mxCell style="rounded=1;whiteSpace=wrap;html=1;labelBackgroundColor=none;fillColor=#63BEF2;fontColor=#ffffff;align=center;arcSize=6;strokeColor=#2086C9;metaEdit=1;resizable=1;points=[[0.25,0,0],[0.5,0,0],[0.75,0,0],[1,0.25,0],[1,0.5,0],[1,0.75,0],[0.75,1,0],[0.5,1,0],[0.25,1,0],[0,0.75,0],[0,0.5,0],[0,0.25,0]];editable=1;movable=1;rotatable=1;deletable=1;locked=0;connectable=1;" vertex="1" parent="1">
            <mxGeometry x="190" y="840" width="160" height="110" as="geometry" />
          </mxCell>
        </object>
        <mxCell id="TjytSRkxPF6Oe4-oskK--30" value="" style="shape=mxgraph.bpmn.data;labelPosition=center;verticalLabelPosition=bottom;align=center;verticalAlign=top;size=15;html=1;bpmnTransferType=output;" vertex="1" parent="1">
          <mxGeometry x="460" y="1220" width="40" height="60" as="geometry" />
        </mxCell>
        <mxCell id="TjytSRkxPF6Oe4-oskK--32" value="" style="shape=mxgraph.bpmn.data;labelPosition=center;verticalLabelPosition=bottom;align=center;verticalAlign=top;size=15;html=1;bpmnTransferType=output;" vertex="1" parent="1">
          <mxGeometry x="480" y="1250" width="40" height="60" as="geometry" />
        </mxCell>
        <mxCell id="TjytSRkxPF6Oe4-oskK--36" value="Models&lt;br&gt;(BPMN, Forms and DMN)" style="text;html=1;strokeColor=none;fillColor=none;align=center;verticalAlign=middle;whiteSpace=wrap;rounded=0;" vertex="1" parent="1">
          <mxGeometry x="425" y="1320" width="150" height="30" as="geometry" />
        </mxCell>
        <mxCell id="TjytSRkxPF6Oe4-oskK--38" style="edgeStyle=orthogonalEdgeStyle;rounded=0;orthogonalLoop=1;jettySize=auto;html=1;exitX=0.5;exitY=0;exitDx=0;exitDy=0;exitPerimeter=0;" edge="1" parent="1" source="TjytSRkxPF6Oe4-oskK--28">
          <mxGeometry relative="1" as="geometry">
            <mxPoint x="818.37" y="1180" as="sourcePoint" />
            <mxPoint x="860" y="1100" as="targetPoint" />
            <Array as="points">
              <mxPoint x="859" y="1161" />
              <mxPoint x="860" y="1100" />
            </Array>
          </mxGeometry>
        </mxCell>
        <mxCell id="TjytSRkxPF6Oe4-oskK--40" value="&lt;font style=&quot;font-size: 12px;&quot;&gt;connects via zeebe gateway&lt;/font&gt;" style="edgeLabel;html=1;align=center;verticalAlign=middle;resizable=0;points=[];" connectable="0" vertex="1" parent="TjytSRkxPF6Oe4-oskK--38">
          <mxGeometry x="0.2621" y="-4" relative="1" as="geometry">
            <mxPoint x="-4" y="6" as="offset" />
          </mxGeometry>
        </mxCell>
        <mxCell id="TjytSRkxPF6Oe4-oskK--56" value="&lt;font style=&quot;font-size: 12px;&quot;&gt;connects via zeebe gateway&lt;/font&gt;" style="edgeLabel;html=1;align=center;verticalAlign=middle;resizable=0;points=[];" connectable="0" vertex="1" parent="TjytSRkxPF6Oe4-oskK--38">
          <mxGeometry x="0.2621" y="-4" relative="1" as="geometry">
            <mxPoint x="-193" y="6" as="offset" />
          </mxGeometry>
        </mxCell>
        <object placeholders="1" c4Type="Database Container" c4Container="" c4Technology="e.g. MySQL" c4Description="stores customers, products and product parts each in separate tables" label="&lt;font style=&quot;font-size: 16px&quot;&gt;&lt;b&gt;%c4Type%&lt;/b&gt;&lt;/font&gt;&lt;div&gt;[%c4Container%:&amp;nbsp;%c4Technology%]&lt;/div&gt;&lt;br&gt;&lt;div&gt;&lt;font style=&quot;font-size: 11px&quot;&gt;&lt;font color=&quot;#E6E6E6&quot;&gt;%c4Description%&lt;/font&gt;&lt;/div&gt;" id="TjytSRkxPF6Oe4-oskK--44">
          <mxCell style="shape=cylinder3;size=15;whiteSpace=wrap;html=1;boundedLbl=1;rounded=0;labelBackgroundColor=none;fillColor=#23A2D9;fontSize=12;fontColor=#ffffff;align=center;strokeColor=#0E7DAD;metaEdit=1;points=[[0.5,0,0],[1,0.25,0],[1,0.5,0],[1,0.75,0],[0.5,1,0],[0,0.75,0],[0,0.5,0],[0,0.25,0]];resizable=1;editable=1;movable=1;rotatable=1;deletable=1;locked=0;connectable=1;" vertex="1" parent="1">
            <mxGeometry x="1030" y="1200" width="170" height="130" as="geometry" />
          </mxCell>
        </object>
        <mxCell id="TjytSRkxPF6Oe4-oskK--55" style="edgeStyle=orthogonalEdgeStyle;rounded=0;orthogonalLoop=1;jettySize=auto;html=1;" edge="1" parent="1" source="TjytSRkxPF6Oe4-oskK--50">
          <mxGeometry relative="1" as="geometry">
            <mxPoint x="668.875" y="1100.0000000000002" as="targetPoint" />
          </mxGeometry>
        </mxCell>
        <object placeholders="1" c4Name="MQTT Client" c4Type="Component" c4Technology="Jobworker (java, Go, Node.js) " c4Description="fetching data from and sending commands to IoT devices." label="&lt;font style=&quot;font-size: 16px&quot;&gt;&lt;b&gt;%c4Name%&lt;/b&gt;&lt;/font&gt;&lt;div&gt;[%c4Type%: %c4Technology%]&lt;/div&gt;&lt;br&gt;&lt;div&gt;&lt;font style=&quot;font-size: 11px&quot;&gt;%c4Description%&lt;/font&gt;&lt;/div&gt;" id="TjytSRkxPF6Oe4-oskK--50">
          <mxCell style="rounded=1;whiteSpace=wrap;html=1;labelBackgroundColor=none;fillColor=#63BEF2;fontColor=#ffffff;align=center;arcSize=6;strokeColor=#2086C9;metaEdit=1;resizable=1;points=[[0.25,0,0],[0.5,0,0],[0.75,0,0],[1,0.25,0],[1,0.5,0],[1,0.75,0],[0.75,1,0],[0.5,1,0],[0.25,1,0],[0,0.75,0],[0,0.5,0],[0,0.25,0]];editable=1;movable=1;rotatable=1;deletable=1;locked=0;connectable=1;" vertex="1" parent="1">
            <mxGeometry x="590" y="1220" width="157.75" height="90" as="geometry" />
          </mxCell>
        </object>
        <object placeholders="1" c4Name="MQTT Broker" c4Type="ContainerScopeBoundary" c4Application="Container" label="&lt;font style=&quot;font-size: 16px&quot;&gt;&lt;b&gt;&lt;div style=&quot;text-align: left&quot;&gt;%c4Name%&lt;/div&gt;&lt;/b&gt;&lt;/font&gt;&lt;div style=&quot;text-align: left&quot;&gt;[%c4Application%]&lt;/div&gt;" id="TjytSRkxPF6Oe4-oskK--57">
          <mxCell style="rounded=1;fontSize=11;whiteSpace=wrap;html=1;dashed=1;arcSize=20;fillColor=none;strokeColor=#666666;fontColor=#333333;labelBackgroundColor=none;align=left;verticalAlign=bottom;labelBorderColor=none;spacingTop=0;spacing=10;dashPattern=8 4;metaEdit=1;rotatable=0;perimeter=rectanglePerimeter;noLabel=0;labelPadding=0;allowArrows=0;connectable=0;expand=0;recursiveResize=0;editable=1;pointerEvents=0;absoluteArcSize=1;points=[[0.25,0,0],[0.5,0,0],[0.75,0,0],[1,0.25,0],[1,0.5,0],[1,0.75,0],[0.75,1,0],[0.5,1,0],[0.25,1,0],[0,0.75,0],[0,0.5,0],[0,0.25,0]];" vertex="1" parent="1">
            <mxGeometry x="450" y="1480" width="420" height="210" as="geometry" />
          </mxCell>
        </object>
        <mxCell id="TjytSRkxPF6Oe4-oskK--61" style="edgeStyle=orthogonalEdgeStyle;rounded=0;orthogonalLoop=1;jettySize=auto;html=1;" edge="1" parent="1" source="TjytSRkxPF6Oe4-oskK--59" target="TjytSRkxPF6Oe4-oskK--50">
          <mxGeometry relative="1" as="geometry">
            <mxPoint x="630" y="1410" as="targetPoint" />
            <Array as="points" />
          </mxGeometry>
        </mxCell>
        <mxCell id="TjytSRkxPF6Oe4-oskK--73" style="edgeStyle=orthogonalEdgeStyle;rounded=0;orthogonalLoop=1;jettySize=auto;html=1;entryX=0.5;entryY=0;entryDx=0;entryDy=0;entryPerimeter=0;" edge="1" parent="1" source="TjytSRkxPF6Oe4-oskK--59" target="TjytSRkxPF6Oe4-oskK--66">
          <mxGeometry relative="1" as="geometry" />
        </mxCell>
        <object placeholders="1" c4Name="MQTT Broker" c4Type="Component" c4Technology="E.g EMQX, Mosquitto " c4Description="receives messages from publishers and delivers them to subscribers based on their topic subscriptions." label="&lt;font style=&quot;font-size: 16px&quot;&gt;&lt;b&gt;%c4Name%&lt;/b&gt;&lt;/font&gt;&lt;div&gt;[%c4Type%: %c4Technology%]&lt;/div&gt;&lt;br&gt;&lt;div&gt;&lt;font style=&quot;font-size: 11px&quot;&gt;%c4Description%&lt;/font&gt;&lt;/div&gt;" id="TjytSRkxPF6Oe4-oskK--59">
          <mxCell style="rounded=1;whiteSpace=wrap;html=1;labelBackgroundColor=none;fillColor=#63BEF2;fontColor=#ffffff;align=center;arcSize=6;strokeColor=#2086C9;metaEdit=1;resizable=1;points=[[0.25,0,0],[0.5,0,0],[0.75,0,0],[1,0.25,0],[1,0.5,0],[1,0.75,0],[0.75,1,0],[0.5,1,0],[0.25,1,0],[0,0.75,0],[0,0.5,0],[0,0.25,0]];editable=1;movable=1;rotatable=1;deletable=1;locked=0;connectable=1;" vertex="1" parent="1">
            <mxGeometry x="578.88" y="1510" width="179.99" height="120" as="geometry" />
          </mxCell>
        </object>
        <mxCell id="TjytSRkxPF6Oe4-oskK--62" style="edgeStyle=orthogonalEdgeStyle;rounded=0;orthogonalLoop=1;jettySize=auto;html=1;" edge="1" parent="1" source="TjytSRkxPF6Oe4-oskK--50">
          <mxGeometry relative="1" as="geometry">
            <mxPoint x="698" y="1410" as="sourcePoint" />
            <mxPoint x="670" y="1510" as="targetPoint" />
            <Array as="points">
              <mxPoint x="669" y="1410" />
              <mxPoint x="670" y="1510" />
            </Array>
          </mxGeometry>
        </mxCell>
        <mxCell id="TjytSRkxPF6Oe4-oskK--64" value="&lt;font style=&quot;font-size: 12px;&quot;&gt;publish/subscribe&lt;/font&gt;" style="edgeLabel;html=1;align=center;verticalAlign=middle;resizable=0;points=[];" connectable="0" vertex="1" parent="TjytSRkxPF6Oe4-oskK--62">
          <mxGeometry x="-0.1772" y="2" relative="1" as="geometry">
            <mxPoint x="-2" y="47" as="offset" />
          </mxGeometry>
        </mxCell>
        <object placeholders="1" c4Name="Warehouse controller app" c4Type="ContainerScopeBoundary" c4Application="Container" label="&lt;font style=&quot;font-size: 16px&quot;&gt;&lt;b&gt;&lt;div style=&quot;text-align: left&quot;&gt;%c4Name%&lt;/div&gt;&lt;/b&gt;&lt;/font&gt;&lt;div style=&quot;text-align: left&quot;&gt;[%c4Application%]&lt;/div&gt;" id="TjytSRkxPF6Oe4-oskK--65">
          <mxCell style="rounded=1;fontSize=11;whiteSpace=wrap;html=1;dashed=1;arcSize=20;fillColor=none;strokeColor=#666666;fontColor=#333333;labelBackgroundColor=none;align=left;verticalAlign=bottom;labelBorderColor=none;spacingTop=0;spacing=10;dashPattern=8 4;metaEdit=1;rotatable=0;perimeter=rectanglePerimeter;noLabel=0;labelPadding=0;allowArrows=0;connectable=0;expand=0;recursiveResize=0;editable=1;pointerEvents=0;absoluteArcSize=1;points=[[0.25,0,0],[0.5,0,0],[0.75,0,0],[1,0.25,0],[1,0.5,0],[1,0.75,0],[0.75,1,0],[0.5,1,0],[0.25,1,0],[0,0.75,0],[0,0.5,0],[0,0.25,0]];" vertex="1" parent="1">
            <mxGeometry x="450" y="1760" width="430" height="210" as="geometry" />
          </mxCell>
        </object>
        <mxCell id="TjytSRkxPF6Oe4-oskK--72" style="edgeStyle=orthogonalEdgeStyle;rounded=0;orthogonalLoop=1;jettySize=auto;html=1;entryX=0.5;entryY=1;entryDx=0;entryDy=0;entryPerimeter=0;" edge="1" parent="1" source="TjytSRkxPF6Oe4-oskK--66" target="TjytSRkxPF6Oe4-oskK--59">
          <mxGeometry relative="1" as="geometry" />
        </mxCell>
        <mxCell id="TjytSRkxPF6Oe4-oskK--74" value="publish/subscribe" style="edgeLabel;html=1;align=center;verticalAlign=middle;resizable=0;points=[];" connectable="0" vertex="1" parent="TjytSRkxPF6Oe4-oskK--72">
          <mxGeometry x="-0.0588" y="2" relative="1" as="geometry">
            <mxPoint as="offset" />
          </mxGeometry>
        </mxCell>
        <object placeholders="1" c4Name="Controller" c4Type="Component" c4Technology="Python programm using ftrobopy module" c4Description="Controls the warehouse robots." label="&lt;font style=&quot;font-size: 16px&quot;&gt;&lt;b&gt;%c4Name%&lt;/b&gt;&lt;/font&gt;&lt;div&gt;[%c4Type%: %c4Technology%]&lt;/div&gt;&lt;br&gt;&lt;div&gt;&lt;font style=&quot;font-size: 11px&quot;&gt;%c4Description%&lt;/font&gt;&lt;/div&gt;" id="TjytSRkxPF6Oe4-oskK--66">
          <mxCell style="rounded=1;whiteSpace=wrap;html=1;labelBackgroundColor=none;fillColor=#63BEF2;fontColor=#ffffff;align=center;arcSize=6;strokeColor=#2086C9;metaEdit=1;resizable=1;points=[[0.25,0,0],[0.5,0,0],[0.75,0,0],[1,0.25,0],[1,0.5,0],[1,0.75,0],[0.75,1,0],[0.5,1,0],[0.25,1,0],[0,0.75,0],[0,0.5,0],[0,0.25,0]];editable=1;movable=1;rotatable=1;deletable=1;locked=0;connectable=1;" vertex="1" parent="1">
            <mxGeometry x="583.88" y="1800" width="170" height="100" as="geometry" />
          </mxCell>
        </object>
        <mxCell id="TjytSRkxPF6Oe4-oskK--75" value="&lt;b&gt;BPA-LAB Kernsystem&lt;/b&gt;" style="text;strokeColor=none;align=center;fillColor=none;html=1;verticalAlign=middle;whiteSpace=wrap;rounded=0;" vertex="1" parent="1">
          <mxGeometry y="1950" width="150" height="30" as="geometry" />
        </mxCell>
        <mxCell id="TjytSRkxPF6Oe4-oskK--76" value="Legend" style="shape=table;startSize=30;container=1;collapsible=0;childLayout=tableLayout;fontSize=16;align=left;verticalAlign=top;fillColor=none;strokeColor=none;fontColor=#4D4D4D;fontStyle=1;spacingLeft=6;spacing=0;resizable=0;" vertex="1" parent="1">
          <mxGeometry x="1380" y="1790" width="180" height="210" as="geometry" />
        </mxCell>
        <mxCell id="TjytSRkxPF6Oe4-oskK--77" value="" style="shape=tableRow;horizontal=0;startSize=0;swimlaneHead=0;swimlaneBody=0;strokeColor=inherit;top=0;left=0;bottom=0;right=0;collapsible=0;dropTarget=0;fillColor=none;points=[[0,0.5],[1,0.5]];portConstraint=eastwest;fontSize=12;" vertex="1" parent="TjytSRkxPF6Oe4-oskK--76">
          <mxGeometry y="30" width="180" height="30" as="geometry" />
        </mxCell>
        <mxCell id="TjytSRkxPF6Oe4-oskK--78" value="Person" style="shape=partialRectangle;html=1;whiteSpace=wrap;connectable=0;strokeColor=inherit;overflow=hidden;fillColor=#1E4074;top=0;left=0;bottom=0;right=0;pointerEvents=1;fontSize=12;align=left;fontColor=#FFFFFF;gradientColor=none;spacingLeft=10;spacingRight=4;" vertex="1" parent="TjytSRkxPF6Oe4-oskK--77">
          <mxGeometry width="180" height="30" as="geometry">
            <mxRectangle width="180" height="30" as="alternateBounds" />
          </mxGeometry>
        </mxCell>
        <mxCell id="TjytSRkxPF6Oe4-oskK--79" value="" style="shape=tableRow;horizontal=0;startSize=0;swimlaneHead=0;swimlaneBody=0;strokeColor=inherit;top=0;left=0;bottom=0;right=0;collapsible=0;dropTarget=0;fillColor=none;points=[[0,0.5],[1,0.5]];portConstraint=eastwest;fontSize=12;" vertex="1" parent="TjytSRkxPF6Oe4-oskK--76">
          <mxGeometry y="60" width="180" height="30" as="geometry" />
        </mxCell>
        <mxCell id="TjytSRkxPF6Oe4-oskK--80" value="Software System" style="shape=partialRectangle;html=1;whiteSpace=wrap;connectable=0;strokeColor=inherit;overflow=hidden;fillColor=#3162AF;top=0;left=0;bottom=0;right=0;pointerEvents=1;fontSize=12;align=left;fontColor=#FFFFFF;gradientColor=none;spacingLeft=10;spacingRight=4;" vertex="1" parent="TjytSRkxPF6Oe4-oskK--79">
          <mxGeometry width="180" height="30" as="geometry">
            <mxRectangle width="180" height="30" as="alternateBounds" />
          </mxGeometry>
        </mxCell>
        <mxCell id="TjytSRkxPF6Oe4-oskK--81" value="" style="shape=tableRow;horizontal=0;startSize=0;swimlaneHead=0;swimlaneBody=0;strokeColor=inherit;top=0;left=0;bottom=0;right=0;collapsible=0;dropTarget=0;fillColor=none;points=[[0,0.5],[1,0.5]];portConstraint=eastwest;fontSize=12;" vertex="1" parent="TjytSRkxPF6Oe4-oskK--76">
          <mxGeometry y="90" width="180" height="30" as="geometry" />
        </mxCell>
        <mxCell id="TjytSRkxPF6Oe4-oskK--82" value="Container" style="shape=partialRectangle;html=1;whiteSpace=wrap;connectable=0;strokeColor=inherit;overflow=hidden;fillColor=#52a2d8;top=0;left=0;bottom=0;right=0;pointerEvents=1;fontSize=12;align=left;fontColor=#FFFFFF;gradientColor=none;spacingLeft=10;spacingRight=4;" vertex="1" parent="TjytSRkxPF6Oe4-oskK--81">
          <mxGeometry width="180" height="30" as="geometry">
            <mxRectangle width="180" height="30" as="alternateBounds" />
          </mxGeometry>
        </mxCell>
        <mxCell id="TjytSRkxPF6Oe4-oskK--83" value="" style="shape=tableRow;horizontal=0;startSize=0;swimlaneHead=0;swimlaneBody=0;strokeColor=inherit;top=0;left=0;bottom=0;right=0;collapsible=0;dropTarget=0;fillColor=none;points=[[0,0.5],[1,0.5]];portConstraint=eastwest;fontSize=12;" vertex="1" parent="TjytSRkxPF6Oe4-oskK--76">
          <mxGeometry y="120" width="180" height="30" as="geometry" />
        </mxCell>
        <mxCell id="TjytSRkxPF6Oe4-oskK--84" value="Component" style="shape=partialRectangle;html=1;whiteSpace=wrap;connectable=0;strokeColor=inherit;overflow=hidden;fillColor=#7dbef2;top=0;left=0;bottom=0;right=0;pointerEvents=1;fontSize=12;align=left;fontColor=#FFFFFF;gradientColor=none;spacingLeft=10;spacingRight=4;" vertex="1" parent="TjytSRkxPF6Oe4-oskK--83">
          <mxGeometry width="180" height="30" as="geometry">
            <mxRectangle width="180" height="30" as="alternateBounds" />
          </mxGeometry>
        </mxCell>
        <mxCell id="TjytSRkxPF6Oe4-oskK--85" value="" style="shape=tableRow;horizontal=0;startSize=0;swimlaneHead=0;swimlaneBody=0;strokeColor=inherit;top=0;left=0;bottom=0;right=0;collapsible=0;dropTarget=0;fillColor=none;points=[[0,0.5],[1,0.5]];portConstraint=eastwest;fontSize=12;" vertex="1" parent="TjytSRkxPF6Oe4-oskK--76">
          <mxGeometry y="150" width="180" height="30" as="geometry" />
        </mxCell>
        <mxCell id="TjytSRkxPF6Oe4-oskK--86" value="External Person" style="shape=partialRectangle;html=1;whiteSpace=wrap;connectable=0;strokeColor=inherit;overflow=hidden;fillColor=#6b6477;top=0;left=0;bottom=0;right=0;pointerEvents=1;fontSize=12;align=left;fontColor=#FFFFFF;gradientColor=none;spacingLeft=10;spacingRight=4;" vertex="1" parent="TjytSRkxPF6Oe4-oskK--85">
          <mxGeometry width="180" height="30" as="geometry">
            <mxRectangle width="180" height="30" as="alternateBounds" />
          </mxGeometry>
        </mxCell>
        <mxCell id="TjytSRkxPF6Oe4-oskK--87" value="" style="shape=tableRow;horizontal=0;startSize=0;swimlaneHead=0;swimlaneBody=0;strokeColor=inherit;top=0;left=0;bottom=0;right=0;collapsible=0;dropTarget=0;fillColor=none;points=[[0,0.5],[1,0.5]];portConstraint=eastwest;fontSize=12;" vertex="1" parent="TjytSRkxPF6Oe4-oskK--76">
          <mxGeometry y="180" width="180" height="30" as="geometry" />
        </mxCell>
        <mxCell id="TjytSRkxPF6Oe4-oskK--88" value="External Software System" style="shape=partialRectangle;html=1;whiteSpace=wrap;connectable=0;strokeColor=inherit;overflow=hidden;fillColor=#8b8496;top=0;left=0;bottom=0;right=0;pointerEvents=1;fontSize=12;align=left;fontColor=#FFFFFF;gradientColor=none;spacingLeft=10;spacingRight=4;" vertex="1" parent="TjytSRkxPF6Oe4-oskK--87">
          <mxGeometry width="180" height="30" as="geometry">
            <mxRectangle width="180" height="30" as="alternateBounds" />
          </mxGeometry>
        </mxCell>
        <mxCell id="P4v8DBkEi0H8zD-5aOaP-1" value="" style="endArrow=classic;startArrow=classic;html=1;rounded=0;exitX=0.547;exitY=0;exitDx=0;exitDy=0;exitPerimeter=0;" edge="1" parent="1" source="TjytSRkxPF6Oe4-oskK--2">
          <mxGeometry width="50" height="50" relative="1" as="geometry">
            <mxPoint x="728.37" y="595" as="sourcePoint" />
            <mxPoint x="728.37" y="515" as="targetPoint" />
          </mxGeometry>
        </mxCell>
        <mxCell id="P4v8DBkEi0H8zD-5aOaP-2" value="HTTP call via camunda&lt;br style=&quot;border-color: var(--border-color);&quot;&gt;webhook connector" style="edgeLabel;html=1;align=center;verticalAlign=middle;resizable=0;points=[];" connectable="0" vertex="1" parent="P4v8DBkEi0H8zD-5aOaP-1">
          <mxGeometry x="0.0479" y="1" relative="1" as="geometry">
            <mxPoint x="62" y="15" as="offset" />
          </mxGeometry>
        </mxCell>
        <mxCell id="P4v8DBkEi0H8zD-5aOaP-4" value="sends order status" style="edgeLabel;html=1;align=center;verticalAlign=middle;resizable=0;points=[];" connectable="0" vertex="1" parent="P4v8DBkEi0H8zD-5aOaP-1">
          <mxGeometry x="0.1616" y="-1" relative="1" as="geometry">
            <mxPoint x="-50" as="offset" />
          </mxGeometry>
        </mxCell>
        <object placeholders="1" c4Name="BPA LAB C4-Component-Diagramm" c4Type="ContainerDiagramTitle" c4Description="" label="&lt;font style=&quot;font-size: 16px&quot;&gt;&lt;b&gt;&lt;div style=&quot;text-align: left&quot;&gt;%c4Name%&lt;/div&gt;&lt;/b&gt;&lt;/font&gt;&lt;div style=&quot;text-align: left&quot;&gt;%c4Description%&lt;/div&gt;" id="P4v8DBkEi0H8zD-5aOaP-5">
          <mxCell style="text;html=1;strokeColor=none;fillColor=none;align=left;verticalAlign=top;whiteSpace=wrap;rounded=0;metaEdit=1;allowArrows=0;resizable=1;rotatable=0;connectable=0;recursiveResize=0;expand=0;pointerEvents=0;points=[[0.25,0,0],[0.5,0,0],[0.75,0,0],[1,0.25,0],[1,0.5,0],[1,0.75,0],[0.75,1,0],[0.5,1,0],[0.25,1,0],[0,0.75,0],[0,0.5,0],[0,0.25,0]];" vertex="1" parent="1">
            <mxGeometry x="518.88" y="2080" width="300" height="40" as="geometry" />
          </mxCell>
        </object>
      </root>
    </mxGraphModel>
  </diagram>
</mxfile>
